<?xml version="1.0" encoding="UTF-8"?>
<!DOCTYPE svg PUBLIC "-//W3C//DTD SVG 1.1//EN" "http://www.w3.org/Graphics/SVG/1.1/DTD/svg11.dtd">
<!-- Creator: CorelDRAW -->
<svg xmlns="http://www.w3.org/2000/svg" xml:space="preserve" width="113px" height="165px" style="shape-rendering:geometricPrecision; text-rendering:geometricPrecision; image-rendering:optimizeQuality; fill-rule:evenodd; clip-rule:evenodd"
viewBox="0 0 113 165.754"
 xmlns:xlink="http://www.w3.org/1999/xlink">
 <defs>
  <style type="text/css">
   <![CDATA[
    .fil0 {fill:#93297C}
   ]]>
  </style>
 </defs>
 <g id="Layer_x0020_1">
  <metadata id="CorelCorpID_0Corel-Layer"/>
  <path class="fil0" d="M81.8452 85.1927c-13.352,12.9543 -12.411,35.2302 2.06436,47.0103 2.63253,-13.9995 14.5369,-24.7321 29.0904,-25.5701l0 -0.804911c-13.6421,0.678256 -26.4579,-7.77331 -31.1548,-20.6353zm-24.1982 -12.2453c8.09172,-10.6935 19.8186,-18.4857 33.3387,-21.5373 -13.7332,-7.72951 -30.2197,-9.80689 -45.4242,-5.82377 -1.15528,-17.9684 6.73284,-34.8609 24.1686,-44.5459 -3.0705,-0.680623 -6.26292,-1.04047 -9.53819,-1.04047 -31.169,0 -51.8481,32.1645 -40.7936,60.0321 -11.9352,11.148 -19.3983,27.0261 -19.3983,44.643 0,33.7269 27.3516,61.0785 61.0785,61.0785 7.71294,0 15.0933,-1.4299 21.8888,-4.03994 -21.6403,-8.35095 -36.9975,-29.352 -36.9975,-53.9338 0,-12.5483 4.11333,-24.835 11.6771,-34.8325z"/>
 </g>
</svg>
